<svg xmlns="http://www.w3.org/2000/svg" viewBox="0 0 600 702"><defs><linearGradient id="lrg" x1="0" y1="0" x2="1" y2="1"><stop offset="0" stop-color="#FF8A98"/><stop offset="1" stop-color="#CC2F89"/></linearGradient></defs><path fill="url(#lrg)" fill-rule="evenodd" d="M294.5 701.0C294.2 700.5 293.0 700.0 291.9 700.0C285.6 700.0 280.5 695.1 162.4 576.8C97.5 511.7 42.5 456.2 40.3 453.5C30.9 441.8 19.2 422.1 11.7 405.0C8.6 398.1 4.2 383.4 3.1 376.0C2.4 371.9 1.4 366.9 0.9 364.9C-0.3 360.2 -0.3 334.2 0.9 328.7C1.4 326.4 2.4 321.4 3.0 317.5C5.6 303.2 13.3 283.1 21.5 269.5C33.7 249.3 51.7 231.1 72.0 218.5C94.4 204.6 123.6 196.0 148.5 196.0C156.9 196.0 158.6 195.5 157.1 193.6C156.6 193.0 156.0 191.2 155.7 189.5C155.4 187.8 154.6 184.0 154.0 181.0C151.7 169.8 151.2 162.1 151.5 146.5C152.0 123.0 155.8 107.2 166.1 85.3C177.3 61.3 200.0 36.3 223.0 22.4C239.1 12.6 257.2 5.7 273.5 3.1C277.4 2.4 282.4 1.5 284.8 1.0C290.6 -0.3 312.0 -0.3 319.4 1.1C354.0 7.4 374.4 16.1 396.6 34.1C418.8 52.2 439.6 82.6 446.1 106.8C446.6 108.5 447.5 111.7 448.0 113.8C450.9 124.6 452.0 134.5 451.9 151.5C451.9 166.7 451.6 171.2 449.6 180.5C448.3 186.6 446.9 192.5 446.5 193.7C445.8 195.9 446.0 196.0 452.7 196.0C472.8 196.0 498.5 202.7 518.7 213.1C556.0 232.5 582.5 265.2 594.9 307.5C595.4 309.1 596.3 313.6 597.0 317.5C597.6 321.4 598.6 325.9 599.1 327.6C600.3 331.6 600.3 360.2 599.1 364.9C598.6 366.9 597.6 371.9 597.0 376.0C593.0 402.0 579.7 432.0 561.9 454.9C553.1 466.3 329.1 691.4 322.1 695.9C319.5 697.6 315.9 699.3 314.2 699.6C312.4 700.0 310.7 700.7 310.4 701.1C309.7 702.3 295.3 702.2 294.5 701.0ZM319.1 610.7C323.9 608.3 339.7 592.9 421.2 510.7C480.2 451.2 519.2 411.1 521.8 407.4C526.7 400.1 532.0 389.9 532.0 387.7C532.0 386.8 532.4 385.9 532.9 385.6C533.4 385.3 534.0 383.8 534.3 382.3C534.6 380.7 535.5 376.4 536.4 372.5C538.9 361.7 538.6 337.3 535.9 326.2C531.0 306.0 518.7 287.4 501.7 274.7C494.4 269.3 479.4 262.4 469.8 260.1C457.7 257.2 433.1 257.1 421.5 260.0C413.3 262.1 405.4 264.9 398.7 268.2L395.0 270.1L408.4 283.3C427.3 301.9 439.2 320.5 446.8 343.5C453.1 362.5 454.4 371.1 454.4 394.5C454.5 417.3 454.2 418.7 446.4 427.0C439.7 434.2 434.4 436.4 423.9 436.4C416.3 436.4 414.8 436.1 410.4 433.6C404.1 429.9 398.9 424.5 396.2 418.7C394.4 414.8 394.0 412.2 394.0 403.3C393.9 368.7 385.7 347.3 365.0 327.0C353.1 315.3 338.2 307.1 321.7 303.1C316.1 301.8 286.6 301.6 282.4 302.9C280.8 303.4 277.5 304.3 275.0 305.1C263.3 308.4 246.4 318.5 237.5 327.4C228.6 336.3 221.2 347.5 216.6 359.0C212.2 369.8 211.0 377.0 210.2 397.0C209.4 416.7 208.3 420.3 200.9 427.9C194.9 434.0 188.9 436.4 179.5 436.4C169.7 436.4 163.8 433.9 156.9 426.9C148.9 418.7 146.7 406.4 148.9 382.6C151.3 357.7 156.2 340.4 166.3 321.0C174.7 305.0 189.5 286.5 202.0 276.4C205.8 273.3 208.7 270.4 208.4 269.9C207.0 267.5 192.1 262.1 180.0 259.4C171.5 257.6 141.8 257.6 133.5 259.4C101.6 266.6 77.8 287.4 66.5 317.9C63.6 325.9 62.0 336.0 62.0 347.1C62.0 357.4 62.5 361.6 65.2 371.5C67.6 380.7 75.7 396.8 83.8 408.7C86.1 412.0 130.2 457.0 185.1 512.2C296.2 623.5 285.3 614.2 303.5 613.7C312.2 613.5 314.2 613.1 319.1 610.7ZM319.0 238.6C347.0 232.6 370.0 214.6 382.3 188.9C396.9 158.5 392.5 121.4 370.9 94.5C358.0 78.5 337.9 66.6 317.4 63.0C304.6 60.7 280.9 62.8 271.5 66.9C256.1 73.7 247.2 79.6 238.3 88.6C219.7 107.7 210.2 134.4 213.1 159.7C214.3 170.5 215.2 174.3 219.2 184.4C225.4 200.1 235.6 212.9 249.3 222.3C263.3 232.0 271.8 235.9 284.5 238.5C292.8 240.2 311.2 240.3 319.0 238.6Z"/></svg>